<?xml version="1.0" encoding="utf-8"?>
<!-- Generator: Adobe Illustrator 28.1.0, SVG Export Plug-In . SVG Version: 6.00 Build 0)  -->
<svg version="1.1" id="Layer_1" xmlns="http://www.w3.org/2000/svg" xmlns:xlink="http://www.w3.org/1999/xlink" x="0px" y="0px"
	 viewBox="0 0 716.1 324" style="enable-background:new 0 0 716.1 324;" xml:space="preserve">
<style type="text/css">
	.st0{fill:#FBAD1E;}
	.st1{enable-background:new    ;}
</style>
<path class="st0" d="M388.3,146.3c11.3-12.9,24.2-30.5,34.9-42.1c5.3-5.7,11.4-10.6,17.6-15.3c6-4.6,13.1-4.8,19.9-1.6
	c9.5,4.4,11.9,15.2,6.2,24c-8.5,13.1-17.5,26-24.3,39.9c-6.2,12.7-11.8,26.1-12.2,40.7c-0.1,2,0.7,4.1,1.1,6.1
	c2.1-0.6,4.8-0.6,6.3-1.9c11.2-9.6,22.1-19.6,33.3-29.2c9.6-8.2,19.5-16,29.4-23.8c1.1-0.9,3.2-0.6,4.9-0.8c0,1.9,0.1,3.8-0.2,5.5
	c-0.2,1-1.3,1.9-2.1,2.7c-18.3,19.1-36.4,38.4-55.2,57.1c-4.9,4.8-11.6,8.9-18.2,10.7c-9.8,2.7-22.2-9.6-22.9-20.6
	c-1-15.6,2.5-30.4,8.1-44.8c2-5.2,3.9-10.5,5.8-15.8c-0.7-0.1-1.1-0.3-1.2-0.2c-12.4,14.5-25.4,28.6-37,43.8
	c-6.3,8.2-10.2,18.2-15.5,27.2c-2.6,4.4-5.7,8.6-11.1,10.2c-3.6,1.1-6.9,1.7-10.1-1.6c-1.3-1.3-3.8-1.7-5.9-2c-6.5-1.1-8.7-3.2-9-10
	c-0.2-4.6,4.3-13.1,4.3-18.6c-1.6,1.7-6.9,6.6-7.9,7.6c-7.8,7.7-15.1,15.9-23.4,22.9c-4.9,4.1-11.6,4.4-18.3,2.7
	c-9.4-2.4-13.6-9.5-17.3-17.1c-4.3-8.8-4-18.1-1.6-27.3c6.5-25.2,16.2-49.1,27.9-72.3c3.1-6.1,8-8.3,14.5-6
	c9.2,3.4,14.9,7.2,10.6,20c-5.6,16.3-10.6,32.8-15.5,49.3c-2.6,8.7-4.7,17.5-7,26.2c0.4,0.3,0.7,0.5,1,0.8c3.8-3.3,7.8-6.3,11.4-9.8
	c11.5-11.3,23.2-22.4,34.1-34.3c4.1-4.5,6.5-10.7,9.1-16.4c7.3-15.8,14.2-31.9,21.4-47.8c3.5-7.8,10.8-11.6,17-6.9
	c5,3.8,10.9,8.5,11.1,16.7c0.2,9.4-2.4,18-5.7,26.6C394.5,126.6,390.4,138.7,388.3,146.3L388.3,146.3z"/>
<path class="st0" d="M246.9,80.2c-11.4-6.1-23.7-7.1-38.6-7.8c-4.2,0.5-10.8,1.5-17.4,2.1c-22.1,1.9-33.5,16.1-36.6,35.3
	c-2,12.2-0.4,24.5,4.1,36.3c1.5,3.8,3.3,7.5,1.5,12.4c-7.4,20.3-0.4,51.9,29.2,59.6c6.5,1.7,13.6,2.6,20.1,1.9
	c13.1-1.5,23.8-8.2,31.2-19.3c7.4-11,10.8-22.9,7.8-36.4c-0.8-3.8-0.4-8.6,1.2-12c5.4-11.1,10-22.3,12.3-34.6
	C264.1,105.6,259.6,87.1,246.9,80.2L246.9,80.2z M172,117.7c0.4,5.9,0.8,11.8,1.1,17.1c-6.5-7.2-6.3-18.9-0.3-31.4
	c4.4-9.1,14.6-17.7,42.1-12.1c-5.6,0-11.1,0.1-16.6,0C184.3,91.1,170.9,102.3,172,117.7z M224.7,131.9c-3.1-0.4-6.3-0.7-9.3-1.6
	c-10.1-3.2-19.9-2.5-29.6,1.4c-3.3,1.3-5.9,0-6-2.9c-0.1-6.7-0.2-13.6,1.4-20c2-7.7,9.5-9,16.4-9.7c4.1-0.4,8.3-0.1,12.5-0.1
	l0.1-0.8c6.9,0.8,13.8,1.5,20.6,2.5c4.4,0.7,6.8,3.5,6.4,8c-0.6,5.4-1.1,10.9-2.5,16.1C233.4,129.5,230.1,132.6,224.7,131.9
	L224.7,131.9z M248.9,138.4c-1.8,3.3-4.5,6.1-7,8.9c-1.7,1.9,1.9-8.1,3.6-11.1c1.6-2.8,5-5,6.3-8.1c0.4-1,2.1-5.9,2.1-5.9
	s-0.3,4.2-0.4,5.3C253.1,131.4,250.8,134.9,248.9,138.4z"/>
<path class="st0" d="M132.8,49.3c-3.1-0.2-4.7-0.4-6.3-0.4c-10.2,0-20.3,0.3-30.5-0.1c-8.4-0.3-16.8-0.9-25.2-2
	c-5.1-0.7-7.8-4.8-9.3-9.4c-0.3-0.8-0.3-1.6-0.5-2.5c-2.2-10.2,0.4-12.5,10.5-10c3.8,1,7.8,1.4,11.7,1.8c5.8,0.6,11.5,1.1,17.3,1.6
	c1.5,0.1,3,0.1,4.5,0c5.9-0.5,11.8-1.5,17.8-1.6c21.3-0.2,42.7,0.1,64-0.3c12.6-0.3,25.2-2.2,37.8-2.2c12.1-0.1,24.3,0.2,35.8,4.9
	c2.3,0.9,3.7,4.3,5.5,6.5c-2,1.2-4,3.4-6,3.5c-6.7,0.3-13.5-0.1-20.3-0.1c-6.2,0-12.5,0.2-18.7,0.4c-1.1,0-2.3,0.4-3.4,0.5
	c-10.8,0.7-21.6,1.2-32.3,2.2c-6.1,0.6-12.1,2-18,3.6c-1.7,0.5-3.5,2.6-4.3,4.4c-10.9,24.2-21.6,48.5-32.6,72.7
	c-8.9,19.5-17.9,39-27.6,58c-6,11.8-13.6,22.9-24.5,31c-17.5,12.9-36.4,13.8-53.6-3.9c-9.3-9.6-6-30.8,5.6-37.6
	c2.4-1.4,6.5-1.1,9.5-0.3c3.4,1,3,5.2,0.4,8.7c-2.6,3.4-4.9,7.3-6.2,11.4c-1.8,5.8,1.5,10.8,6.4,12.6c3.7,1.4,8.9,0.7,12.7-0.9
	c8-3.3,11.9-11,15.6-18.2c12.4-24.1,24.6-48.2,36.4-72.6C114.4,90.8,123.1,70.6,132.8,49.3L132.8,49.3z"/>
<path class="st0" d="M602.2,58.2c-2.3,0-4.1-0.1-5.9,0c-8.6,0.5-17.2,2.2-25.7,1.5c-17.4-1.5-25.1-15.3-23.5-30.3
	c0.5-4.8,6.3-7.1,9.9-3.9c4.6,4.2,9.8,5.1,15.6,5c7.7-0.2,15.3,0.2,23-0.1c5.3-0.2,10.5-1,15.7-1.9c1.3-0.2,2.7-1.7,3.6-2.9
	c1.4-2,2.4-4.4,3.7-6.5c4.4-6.9,10.8-6.9,15.6,0.1c5.2,7.7,8.5,8.9,18.6,6.9c12.5-2.4,25.1-2.2,37.7-1.3c1.8,0.1,3.6,0.8,5.2,1.6
	c1.6,0.8,4.2,2.2,4.2,3.1c-0.3,2.5-1.1,5.7-2.9,7.2c-2.2,2-5.5,3.1-8.6,3.8c-10,2.3-20.1,4.1-30.1,6.3c-6.6,1.4-13.2,3.1-19.8,4.8
	c-3.5,0.9-4.7,3.2-5.1,6.9c-1,9.6-3.5,18.8-9.2,27c-2.5,3.7-4.4,8.5-4.6,12.8c-0.4,7.2-2.5,13.6-5.6,19.9
	c-4.6,9.4-9.8,18.7-13.5,28.5c-5,13.1-8.5,26.8-13.1,40.1c-3.2,9.2-6.8,18.3-11.2,27.1c-1.2,2.5-5.6,4.3-8.7,4.7
	c-3.7,0.5-6.8-2.3-7.3-6.2c-0.5-4.1-0.5-8.4,0.3-12.4c3.3-14.9,6.5-29.8,10.7-44.4c5.8-20.4,12.5-40.5,18.9-60.7
	c3.5-10.9,7.4-21.7,11-32.5C601.7,61.5,601.8,60.2,602.2,58.2L602.2,58.2z"/>
<path class="st0" d="M532.6,118c-10.5-1.4-21-2.8-31.5-4.1c-2.8-0.3-6.1-0.9-5.5-4.2c0.5-2.6,2.5-6.2,4.7-7.1c5-2,10.6-2.3,15.8-3.9
	c9.3-2.9,18.4-1.1,27.5,0.1c4.4,0.6,10.6,7.8,10.5,12.2c-0.1,3.5-1.9,6-5.9,6.1c-5.2,0.1-10.3,0-15.5,0
	C532.8,117.4,532.7,117.7,532.6,118L532.6,118z"/>
<path class="st0" d="M314.1,74.2c4.5,1.4,9.1,2.6,13.5,4.4c1.7,0.7,3.6,2.5,4,4.1c0.5,2.9,0.7,6.4-0.5,8.9c-0.6,1.3-4.9,1.8-7,1.1
	c-5.6-1.8-11-4.2-16.3-6.9c-1.8-0.9-4.2-3.7-3.8-4.8c0.7-2.2,3-4.1,5-5.5c1.2-0.8,3.2-0.5,4.8-0.7C313.9,74.6,314,74.4,314.1,74.2
	L314.1,74.2z"/>
<g class="st1">
	<path class="st0" d="M33,277.8h-5.2v-5.2h-5.2v26h5.2v-5.2H33v10.4H17.4v-36.4H33V277.8z"/>
	<path class="st0" d="M59,303.8v-36.4h15.6v36.4H59z M64.2,272.6v26h5.2v-26H64.2z"/>
	<path class="st0" d="M116.2,267.4V283l-5,5.2h5v15.6H111v-15.6h-5.2v15.6h-5.2v-36.4H116.2z M105.8,272.6V283h5.2v-10.4H105.8z"/>
	<path class="st0" d="M147.3,288.2v15.6h-5.2v-36.4h15.6v20.8H147.3z M147.3,272.6V283h5.2v-10.4H147.3z"/>
	<path class="st0" d="M183.7,303.8v-36.4h15.6v36.4H183.7z M188.9,272.6v26h5.2v-26H188.9z"/>
	<path class="st0" d="M282.4,267.4v5.2H272V283h10.4v5.2H272v10.4h10.4v5.2h-15.6v-36.4H282.4z"/>
	<path class="st0" d="M350,267.4l5.2,5.2l2.6,2.6l2.6-2.6l5.2-5.2v36.4h-5.2v-23.4l-2.6,2.6l-2.6-2.6v23.4H350V267.4z"/>
	<path class="st0" d="M391.6,303.8v-36.4h15.6v36.4H391.6z M396.8,272.6v26h5.2v-26H396.8z"/>
	<path class="st0" d="M433.1,298.6v-31.2h5.2V296l2.6,2.6l2.6-2.6v-28.6h5.2v31.2l-5.2,5.2l-2.6,2.6l-2.6-2.6L433.1,298.6z"/>
	<path class="st0" d="M485.1,267.4v36.4h-5.2v-36.4H485.1z"/>
	<path class="st0" d="M516.3,267.4l5.2,5.2l2.6,2.6l2.6-2.6l5.2-5.2v36.4h-5.2v-23.4l-2.6,2.6l-2.6-2.6v23.4h-5.2V267.4z"/>
	<path class="st0" d="M573.4,267.4v5.2H563V283h10.4v5.2H563v10.4h10.4v5.2h-15.6v-36.4H573.4z"/>
	<path class="st0" d="M604.6,272.6v31.2h-5.2v-36.4H615v36.4h-5.2v-31.2H604.6z"/>
	<path class="st0" d="M651.4,272.6v31.2h-5.2v-31.2H641v-5.2h15.6v5.2H651.4z"/>
	<path class="st0" d="M682.6,303.8v-36.4h15.6v36.4H682.6z M687.7,272.6v26h5.2v-26H687.7z"/>
</g>
</svg>
