<?xml version="1.0" encoding="UTF-8"?>
<svg id="Layer_1" data-name="Layer 1" xmlns="http://www.w3.org/2000/svg" viewBox="0 0 716.09 324">
  <defs>
    <style>
      .cls-1 {
        font-family: Gameshow, Gameshow;
        font-size: 83.14px;
      }

      .cls-1, .cls-2 {
        fill: #fbad1e;
      }

      .cls-2 {
        stroke-width: 0px;
      }
    </style>
  </defs>
  <path class="cls-2" d="M388.3,146.33c11.32-12.92,24.17-30.54,34.92-42.08,5.28-5.67,11.43-10.63,17.63-15.33,6.05-4.58,13.09-4.75,19.86-1.59,9.52,4.44,11.87,15.25,6.2,24.02-8.46,13.1-17.46,26.01-24.31,39.94-6.23,12.67-11.78,26.06-12.22,40.69-.06,2.03.73,4.09,1.13,6.13,2.14-.59,4.8-.56,6.32-1.86,11.23-9.61,22.09-19.65,33.33-29.24,9.6-8.19,19.5-16.02,29.42-23.83,1.13-.89,3.22-.56,4.86-.8-.04,1.85.15,3.76-.23,5.54-.22,1.01-1.33,1.87-2.13,2.71-18.32,19.09-36.38,38.43-55.16,57.05-4.88,4.84-11.6,8.88-18.18,10.71-9.79,2.72-22.16-9.55-22.87-20.64-1-15.64,2.48-30.37,8.15-44.76,2.05-5.21,3.88-10.5,5.83-15.82-.67-.13-1.11-.32-1.2-.22-12.42,14.52-25.36,28.63-36.99,43.76-6.3,8.2-10.19,18.23-15.51,27.23-2.61,4.41-5.73,8.61-11.15,10.17-3.65,1.05-6.94,1.7-10.08-1.64-1.26-1.34-3.82-1.68-5.87-2.04-6.55-1.13-8.69-3.25-8.99-9.98-.21-4.62,4.28-13.07,4.28-18.63-1.59,1.68-6.86,6.56-7.86,7.55-7.75,7.7-15.07,15.93-23.44,22.89-4.93,4.1-11.57,4.37-18.26,2.67-9.35-2.37-13.56-9.47-17.26-17.12-4.26-8.81-3.98-18.08-1.58-27.32,6.55-25.16,16.2-49.14,27.86-72.34,3.08-6.13,8.05-8.35,14.48-5.99,9.18,3.36,14.91,7.25,10.58,19.95-5.56,16.31-10.57,32.81-15.55,49.31-2.62,8.66-4.68,17.48-6.99,26.23.35.27.7.53,1.05.8,3.81-3.26,7.82-6.32,11.39-9.82,11.53-11.3,23.25-22.45,34.15-34.34,4.1-4.48,6.48-10.69,9.09-16.36,7.29-15.85,14.21-31.88,21.42-47.76,3.54-7.8,10.84-11.57,16.95-6.94,5.03,3.81,10.92,8.53,11.09,16.66.2,9.4-2.39,17.96-5.66,26.58-2.33,6.15-6.37,18.19-8.52,25.81Z"/>
  <path class="cls-2" d="M246.92,80.22c-11.36-6.13-23.68-7.1-38.58-7.78-4.24.52-10.8,1.53-17.4,2.11-22.08,1.93-33.5,16.07-36.62,35.28-1.98,12.16-.43,24.49,4.13,36.29,1.47,3.8,3.28,7.49,1.51,12.37-7.36,20.3-.45,51.95,29.21,59.61,6.47,1.67,13.56,2.59,20.14,1.86,13.14-1.46,23.75-8.2,31.21-19.29,7.42-11.04,10.77-22.93,7.83-36.41-.82-3.79-.43-8.59,1.24-12.03,5.39-11.1,9.95-22.31,12.27-34.55,2.28-12.08-2.27-30.62-14.94-37.46ZM172.04,117.69c.44,5.87.76,11.75,1.11,17.14-6.51-7.15-6.31-18.88-.27-31.37,4.39-9.08,14.62-17.7,42.05-12.05-5.64,0-11.13.11-16.62-.02-13.98-.32-27.42,10.96-26.27,26.3ZM224.68,131.87c-3.11-.42-6.3-.69-9.26-1.63-10.09-3.17-19.92-2.48-29.6,1.43-3.26,1.32-5.95-.02-6-2.91-.12-6.68-.23-13.64,1.45-20.02,2.04-7.73,9.46-9.04,16.4-9.66,4.12-.37,8.3-.07,12.46-.07l.09-.77c6.87.83,13.77,1.52,20.61,2.53,4.42.65,6.84,3.51,6.37,8.02-.56,5.39-1.1,10.86-2.51,16.06-1.26,4.64-4.57,7.75-10.01,7.02ZM248.87,138.35c-1.83,3.32-4.48,6.14-7.02,8.92-1.74,1.9,1.93-8.13,3.6-11.09,1.6-2.82,5.01-5.01,6.26-8.12.41-1.01,2.1-5.87,2.1-5.87,0,0-.34,4.18-.41,5.26-.25,3.94-2.61,7.41-4.53,10.9Z"/>
  <path class="cls-2" d="M132.8,49.27c-3.1-.22-4.69-.42-6.28-.43-10.16-.02-20.33.27-30.47-.06-8.41-.27-16.84-.92-25.18-2-5.13-.66-7.75-4.77-9.33-9.42-.27-.78-.28-1.64-.45-2.45-2.15-10.19.39-12.54,10.45-10.03,3.82.95,7.79,1.35,11.72,1.8,5.75.65,11.53,1.15,17.29,1.65,1.48.13,3,.1,4.49-.03,5.92-.52,11.83-1.54,17.75-1.6,21.32-.24,42.65.12,63.96-.31,12.61-.26,25.19-2.17,37.79-2.24,12.07-.07,24.34.21,35.77,4.85,2.32.94,3.67,4.27,5.46,6.49-2,1.21-3.95,3.36-6.01,3.47-6.74.35-13.52-.13-20.29-.12-6.24,0-12.47.21-18.71.38-1.15.03-2.3.38-3.45.46-10.78.73-21.58,1.18-32.32,2.25-6.06.61-12.08,1.98-17.97,3.56-1.72.46-3.47,2.6-4.28,4.38-10.95,24.18-21.57,48.52-32.62,72.66-8.91,19.48-17.87,38.95-27.62,58.02-6.03,11.81-13.59,22.92-24.49,30.98-17.47,12.92-36.39,13.82-53.61-3.91-9.33-9.6-5.98-30.77,5.57-37.55,2.44-1.43,6.54-1.15,9.49-.32,3.42.97,2.98,5.22.41,8.66-2.56,3.44-4.94,7.32-6.18,11.38-1.77,5.76,1.49,10.76,6.4,12.61,3.67,1.38,8.91.69,12.72-.87,8.03-3.27,11.92-10.99,15.62-18.19,12.37-24.08,24.64-48.23,36.38-72.63,9.56-19.86,18.3-40.12,27.97-61.46Z"/>
  <path class="cls-2" d="M602.16,58.24c-2.35,0-4.11-.09-5.87.02-8.58.54-17.24,2.21-25.71,1.49-17.42-1.48-25.07-15.3-23.46-30.34.51-4.76,6.35-7.14,9.89-3.87,4.59,4.24,9.78,5.1,15.61,4.98,7.66-.17,15.33.19,22.98-.11,5.27-.2,10.53-.96,15.74-1.85,1.35-.23,2.73-1.7,3.62-2.94,1.43-2.02,2.36-4.38,3.69-6.48,4.39-6.92,10.85-6.85,15.56.11,5.24,7.73,8.47,8.91,18.64,6.93,12.49-2.43,25.08-2.24,37.68-1.27,1.77.14,3.6.8,5.2,1.6,1.59.8,4.24,2.24,4.15,3.15-.27,2.54-1.1,5.67-2.87,7.23-2.25,1.98-5.54,3.11-8.57,3.8-9.98,2.29-20.06,4.13-30.07,6.3-6.63,1.44-13.2,3.12-19.78,4.8-3.52.9-4.73,3.22-5.11,6.94-.99,9.64-3.46,18.79-9.17,27.04-2.53,3.65-4.4,8.46-4.62,12.85-.36,7.24-2.53,13.62-5.62,19.93-4.62,9.45-9.84,18.68-13.54,28.48-4.96,13.13-8.46,26.81-13.07,40.08-3.2,9.21-6.8,18.34-11.15,27.05-1.24,2.49-5.59,4.32-8.74,4.74-3.69.49-6.83-2.33-7.29-6.17-.48-4.08-.55-8.43.33-12.41,3.29-14.88,6.54-29.8,10.74-44.43,5.85-20.38,12.46-40.54,18.93-60.73,3.49-10.89,7.36-21.65,11.01-32.49.4-1.19.49-2.48.86-4.42Z"/>
  <path class="cls-2" d="M532.64,118.04c-10.5-1.39-21-2.82-31.51-4.14-2.81-.35-6.09-.93-5.53-4.23.45-2.63,2.47-6.19,4.69-7.09,4.99-2.02,10.64-2.29,15.84-3.89,9.26-2.87,18.39-1.14,27.55.14,4.42.62,10.63,7.78,10.45,12.15-.14,3.52-1.93,6.02-5.86,6.06-5.16.06-10.31.01-15.47.01-.05.33-.1.65-.15.98Z"/>
  <path class="cls-2" d="M314.11,74.19c4.53,1.41,9.14,2.59,13.53,4.36,1.66.67,3.64,2.52,3.95,4.13.55,2.91.73,6.4-.48,8.91-.6,1.26-4.87,1.79-6.98,1.11-5.6-1.8-11.05-4.22-16.31-6.88-1.76-.89-4.18-3.72-3.81-4.84.72-2.19,2.98-4.1,5.03-5.53,1.19-.83,3.2-.49,4.83-.68.08-.19.16-.39.24-.58Z"/>
  <text class="cls-1" transform="translate(7.04 314.15)"><tspan x="0" y="0">CORPO E MOVIMENTO</tspan></text>
</svg>